PathFileType	4	(x/y/z)	S02_P20_T17
DataRate	CameraRate	NumFrames	NumMarkers	Units	OrigDataRate	OrigDataStartFrame	OrigNumFrames
240	240	4	51	mm	240	1	341
Frame#	Time	Sternum			R.Acromium			L.Acromium			Top.Head			R.ASIS			L.ASIS			R.PSIS			L.PSIS			R.Great.Tro			L.Great.Tro			R.Iliac.Crest			L.Iliac.Crest			V.Sacral			R.Thigh.Upper.Post			R.Thigh.Lower.Ant			R.Thigh.Lower.Post			R.Thigh.Upper.Ant			R.Knee.Lat			R.Knee.Med			R.Shank.Upper.Post			R.Shank.Lower.Ant			R.Shank.Lower.Post			R.Shank.Upper.Ant			R.Ankle.Lat			R.Ankle.Med			R.Heel.Upper			R.Heel.Med			R.Heel.Lat			R.Toe.Lat			R.Toe.Med			R.Toe.Tip			L.Thigh.Upper.Post			L.Thigh.Lower.Ant			L.Thigh.Lower.Post			L.Thigh.Upper.Ant			L.Knee.Lat			L.Knee.Med			L.Shank.Upper.Post			L.Shank.Lower.Ant			L.Shank.Lower.Post			L.Shank.Upper.Ant			L.Ankle.Lat			L.Ankle.Med			L.Heel.Upper			L.Heel.Med			L.Heel.Lat			L.Toe.Lat			L.Toe.Med			L.Toe.Tip			Cervical.Spine			Back			
		X1	Y1	Z1	X2	Y2	Z2	X3	Y3	Z3	X4	Y4	Z4	X5	Y5	Z5	X6	Y6	Z6	X7	Y7	Z7	X8	Y8	Z8	X9	Y9	Z9	X10	Y10	Z10	X11	Y11	Z11	X12	Y12	Z12	X13	Y13	Z13	X14	Y14	Z14	X15	Y15	Z15	X16	Y16	Z16	X17	Y17	Z17	X18	Y18	Z18	X19	Y19	Z19	X20	Y20	Z20	X21	Y21	Z21	X22	Y22	Z22	X23	Y23	Z23	X24	Y24	Z24	X25	Y25	Z25	X26	Y26	Z26	X27	Y27	Z27	X28	Y28	Z28	X29	Y29	Z29	X30	Y30	Z30	X31	Y31	Z31	X32	Y32	Z32	X33	Y33	Z33	X34	Y34	Z34	X35	Y35	Z35	X36	Y36	Z36	X37	Y37	Z37	X38	Y38	Z38	X39	Y39	Z39	X40	Y40	Z40	X41	Y41	Z41	X42	Y42	Z42	X43	Y43	Z43	X44	Y44	Z44	X45	Y45	Z45	X46	Y46	Z46	X47	Y47	Z47	X48	Y48	Z48	X49	Y49	Z49	X50	Y50	Z50	X51	Y51	Z51	

1	0	-1242	1085	308.76	-1320.9	1323.1	471.31	-1364.6	1337.9	182.75	-1265.9	1609.3	325.79	-1277.1	908.96	419.16	-1282.3	914.43	213.46	-1497	960.19	369.03	-1505.8	966.67	294.44	-1368.9	805.59	512.74	-1396	826.38	122.29	-1383.7	958.51	482.13	-1406.2	966.02	149.18	-1530.9	919.17	325.73	-1414.7	601.45	488.39	-1390.4	512.39	445.14	-1463.4	525.76	468.57	-1351.9	593.91	462.99	-1467.1	443.38	451.17	-1499.2	440.65	308.65	-1615.1	276.25	441.76	-1573.4	176.57	418.26	NaN	NaN	NaN	NaN	NaN	NaN	-1656.2	105.36	416.72	-1651.2	125.52	328.86	-1725	99.601	365.16	-1711.5	66.906	336	-1722.5	65.986	398.83	-1559.3	42.659	432.27	-1528.8	38.676	324.31	-1477	62.047	378.34	-1325.1	595.32	142.42	-1223.1	552.72	149.45	-1291.1	514.22	167.06	-1266.8	634.33	125.47	-1210	474.83	161.21	-1215.7	469.58	303.26	-1250.5	291.26	165.09	-1159.7	224.91	171.99	-1236	222.5	181.47	-1184.6	296.29	157.53	-1171.1	109.24	185.58	-1156.7	112.63	267.5	-1218.5	61.201	223.64	-1203.7	43.234	259.54	-1205.2	32.385	198.58	-1043.2	61.157	166.73	-1027.6	90.728	270.25	-973.32	117.33	221.62	-1422.6	1393.1	341.67	-1502.7	1143.3	352.93
2	0.0041667	-1237	1084	308.17	-1316.3	1322.2	470.51	-1359.9	1336.9	181.89	-1261.6	1608.5	325.07	-1272.6	907.66	419.55	-1276.8	913.23	213.2	-1491.4	958.99	368.35	-1500.6	965.66	293.85	-1364	804.67	512.37	-1390.5	825.48	122.15	-1378.1	957.21	481.75	-1400.8	964.75	148.49	-1525.6	918.18	325.11	-1409.7	600.6	487.97	-1384.9	511.55	444.99	-1457.8	524.61	468.22	-1346.9	593.07	462.87	-1461.8	442.31	450.9	-1493.5	439.5	308.34	-1611.8	277.11	441.66	-1571	177.01	418.48	NaN	NaN	NaN	NaN	NaN	NaN	-1655.5	106.63	417.18	-1650.4	126.62	329.72	-1723.9	101.77	365.61	-1710.9	69.115	336.27	-1722	68.026	399.11	-1559.2	42.529	432.34	-1529	38.621	324.47	-1476.9	61.827	378.43	-1319.9	594.45	142.32	-1217.9	551.78	149.65	-1286.1	513.29	166.94	-1261.5	633.49	125.7	-1205.2	473.44	161.2	-1210.4	468.7	302.87	-1247.2	290.24	165.15	-1157	223.13	172.55	-1233.5	221.38	181.73	-1181.3	294.64	157.88	-1169.5	108.13	186.18	-1155.2	111.17	268.13	-1217.2	61.009	224.06	-1202.8	42.573	259.83	-1204.3	32.245	198.82	-1042	59.169	167.37	-1026.3	88.133	271	-971.7	114.39	222.54	-1418	1392.2	340.77	-1497.9	1142.3	352.23
3	0.0083333	-1231.9	1083	307.55	-1311.5	1321.3	469.67	-1355	1335.8	180.98	-1257.1	1607.7	324.31	-1267.8	906.35	419.92	-1271.1	912.02	212.92	-1485.6	957.76	367.64	-1495.1	964.63	293.23	-1358.9	803.71	511.99	-1384.7	824.56	122	-1372.2	955.9	481.36	-1395.2	963.45	147.78	-1520.2	917.15	324.47	-1404.5	599.7	487.53	-1379	510.69	444.85	-1451.9	523.41	467.84	-1341.6	592.21	462.74	-1456.2	441.2	450.64	-1487.5	438.28	308.05	-1608.3	278.05	441.57	-1568.6	177.49	418.77	NaN	NaN	NaN	NaN	NaN	NaN	-1654.6	108.03	417.68	-1649.5	127.84	330.61	-1722.8	104.14	366.1	-1710.1	71.53	336.56	-1721.4	70.267	399.4	-1559.1	42.41	432.42	-1529.1	38.579	324.64	-1476.8	61.602	378.52	-1314.5	593.56	142.24	-1212.6	550.81	149.85	-1280.9	512.33	166.83	-1256.1	632.61	125.93	-1200.3	472.03	161.19	-1204.9	467.81	302.47	-1243.7	289.24	165.21	-1154.3	221.31	173.14	-1230.9	220.26	182	-1177.8	292.96	158.26	-1167.8	107.02	186.82	-1153.6	109.69	268.8	-1216	60.845	224.5	-1202	41.922	260.14	-1203.4	32.138	199.07	-1040.7	57.153	168.01	-1025	85.449	271.78	-970.05	111.34	223.49	-1413.2	1391.2	339.81	-1492.9	1141.2	351.48
4	0.0125	-1226.5	1082	306.92	-1306.6	1320.4	468.81	-1349.8	1334.7	180.02	-1252.4	1607	323.53	-1262.9	905.05	420.27	-1265.2	910.81	212.62	-1479.6	956.52	366.92	-1489.5	963.59	292.59	-1353.7	802.73	511.6	-1378.8	823.64	121.83	-1366.2	954.61	480.96	-1389.3	962.15	147.04	-1514.6	916.11	323.81	-1399.1	598.77	487.08	-1372.9	509.8	444.71	-1445.7	522.16	467.45	-1336.1	591.34	462.6	-1450.3	440.05	450.41	-1481.2	436.99	307.76	-1604.6	279.07	441.49	-1566.2	178.03	419.11	NaN	NaN	NaN	-1543	239.65	437.73	-1653.7	109.56	418.21	-1648.4	129.18	331.52	-1721.5	106.71	366.63	-1709.3	74.163	336.87	-1720.7	72.723	399.72	-1558.9	42.31	432.5	-1529.3	38.555	324.81	-1476.6	61.374	378.6	-1309.1	592.65	142.16	-1207.2	549.8	150.02	-1275.6	511.36	166.73	-1250.6	631.7	126.13	-1195.1	470.6	161.19	-1199.2	466.91	302.1	-1240.1	288.25	165.29	-1151.5	219.48	173.78	-1228.2	219.16	182.27	-1174.2	291.29	158.68	-1166.2	105.93	187.49	-1152	108.21	269.49	-1214.7	60.717	224.96	-1201.2	41.293	260.46	-1202.4	32.072	199.33	-1039.5	55.134	168.65	-1023.7	82.699	272.57	-968.38	108.21	224.44	-1408.2	1390.3	338.81	-1487.7	1140.2	350.69
